<svg width="888" height="773" viewBox="0 0 888 773" fill="none" xmlns="http://www.w3.org/2000/svg">
<rect width="888" height="773" fill="none"/>
<g id="undraw_happy_music_g6wc 1" clip-path="url(#clip0_0_1)">
<path id="Vector" d="M887.772 763.25L252.263 772.831L0 728.121H393.817L887.772 763.25Z" fill="#353232"/>
<path id="Vector_2" d="M179.84 733.435C179.84 733.435 181.327 702.276 211.812 705.898Z" fill="#3F3D56"/>
<g id="flo2">
<path id="Vector_3" d="M171.227 703.784C179.653 703.784 186.484 696.953 186.484 688.526C186.484 680.1 179.653 673.269 171.227 673.269C162.801 673.269 155.97 680.1 155.97 688.526C155.97 696.953 162.801 703.784 171.227 703.784Z" fill="#1AACAC"/>
</g>
<path id="Vector_4" d="M173.051 714.218H168.744V744.365H173.051V714.218Z" fill="#3F3D56"/>
<path id="Vector_5" d="M682.287 738.757C682.287 738.757 683.774 707.599 714.258 711.22Z" fill="#3F3D56"/>
<g id="flo4">
<path id="Vector_6" d="M673.673 709.106C682.1 709.106 688.93 702.275 688.93 693.849C688.93 685.423 682.1 678.592 673.673 678.592C665.247 678.592 658.416 685.423 658.416 693.849C658.416 702.275 665.247 709.106 673.673 709.106Z" fill="#1AACAC"/>
</g>
<path id="Vector_7" d="M675.497 719.541H671.191V749.688H675.497V719.541Z" fill="#3F3D56"/>
<path id="Vector_8" d="M755.738 744.08C755.738 744.08 757.225 712.921 787.709 716.543Z" fill="#3F3D56"/>
<g id="flo5">
<path id="Vector_9" d="M747.124 714.429C755.55 714.429 762.381 707.598 762.381 699.171C762.381 690.745 755.55 683.914 747.124 683.914C738.698 683.914 731.867 690.745 731.867 699.171C731.867 707.598 738.698 714.429 747.124 714.429Z" fill="#1AACAC"/>
</g>
<path id="Vector_10" d="M748.948 724.863H744.642V755.01H748.948V724.863Z" fill="#3F3D56"/>
<path id="Vector_11" d="M300.129 718.532C300.129 718.532 301.616 687.373 332.101 690.995Z" fill="#3F3D56"/>
<g id="flo3">
<path id="Vector_12" d="M291.516 688.88C299.942 688.88 306.773 682.05 306.773 673.623C306.773 665.197 299.942 658.366 291.516 658.366C283.09 658.366 276.259 665.197 276.259 673.623C276.259 682.05 283.09 688.88 291.516 688.88Z" fill="#1AACAC"/>
</g>
<path id="Vector_13" d="M293.34 699.315H289.033V729.462H293.34V699.315Z" fill="#3F3D56"/>
<path id="Vector_14" d="M73.3898 723.854C73.3898 723.854 74.8768 692.696 105.361 696.317Z" fill="#3F3D56"/>
<g id="flo1">
<path id="Vector_15" d="M64.7764 694.203C73.2027 694.203 80.0335 687.372 80.0335 678.946C80.0335 670.52 73.2027 663.689 64.7764 663.689C56.3501 663.689 49.5193 670.52 49.5193 678.946C49.5193 687.372 56.3501 694.203 64.7764 694.203Z" fill="#1AACAC"/>
</g>
<path id="Vector_16" d="M66.6005 704.638H62.2938V734.785H66.6005V704.638Z" fill="#3F3D56"/>
<path id="Vector_17" d="M442.277 669.71C534.082 669.71 608.505 595.287 608.505 503.482C608.505 411.677 534.082 337.254 442.277 337.254C350.472 337.254 276.049 411.677 276.049 503.482C276.049 595.287 350.472 669.71 442.277 669.71Z" fill="#513F3F"/>
<path id="Vector_18" d="M337.626 516.826C341.754 511.883 346.918 507.908 352.751 505.179C358.584 502.451 364.946 501.037 371.385 501.037C377.825 501.037 384.187 502.451 390.02 505.179C395.853 507.908 401.017 511.883 405.145 516.826C412.209 510.082 417.092 501.377 419.163 491.833C421.235 482.289 420.401 472.343 416.769 463.278C413.136 454.212 406.872 446.442 398.783 440.969C390.694 435.496 381.152 432.571 371.385 432.571C361.619 432.571 352.077 435.496 343.988 440.969C335.899 446.442 329.635 454.212 326.002 463.278C322.37 472.343 321.536 482.289 323.607 491.833C325.679 501.377 330.562 510.082 337.626 516.826Z" fill="white"/>
<path id="Vector_19" d="M469.631 516.826C473.759 511.883 478.922 507.908 484.756 505.179C490.589 502.451 496.95 501.037 503.39 501.037C509.83 501.037 516.191 502.451 522.025 505.179C527.858 507.908 533.021 511.883 537.15 516.826C544.214 510.082 549.096 501.377 551.168 491.833C553.24 482.289 552.406 472.343 548.773 463.278C545.141 454.212 538.877 446.442 530.788 440.969C522.699 435.496 513.157 432.571 503.39 432.571C493.624 432.571 484.081 435.496 475.993 440.969C467.904 446.442 461.64 454.212 458.007 463.278C454.375 472.343 453.541 482.289 455.612 491.833C457.684 501.377 462.567 510.082 469.631 516.826Z" fill="white"/>
<path id="Vector_20" d="M354.707 481.632C363.996 481.632 371.525 474.102 371.525 464.814C371.525 455.526 363.996 447.996 354.707 447.996C345.419 447.996 337.889 455.526 337.889 464.814C337.889 474.102 345.419 481.632 354.707 481.632Z" fill="#3F3D56"/>
<path id="Vector_21" d="M486.707 481.632C495.996 481.632 503.525 474.102 503.525 464.814C503.525 455.526 495.996 447.996 486.707 447.996C477.419 447.996 469.889 455.526 469.889 464.814C469.889 474.102 477.419 481.632 486.707 481.632Z" fill="#3F3D56"/>
<path id="Vector_22" d="M322.495 564.595C333.295 564.595 342.051 555.84 342.051 545.039C342.051 534.238 333.295 525.483 322.495 525.483C311.694 525.483 302.939 534.238 302.939 545.039C302.939 555.84 311.694 564.595 322.495 564.595Z" fill="#B98690"/>
<path id="Vector_23" d="M547.392 564.595C558.192 564.595 566.948 555.84 566.948 545.039C566.948 534.238 558.192 525.483 547.392 525.483C536.591 525.483 527.836 534.238 527.836 545.039C527.836 555.84 536.591 564.595 547.392 564.595Z" fill="#B98690"/>
<path id="Vector_24" d="M434.943 505.926L420.276 569.484L444.721 545.039L434.943 505.926Z" fill="#B98690"/>
<path id="Vector_25" d="M510.307 750.38L493.655 736.404L494.043 750.38H488.871L488.458 735.602L465.975 750.38H456.563L488.29 729.526L487.061 685.737L486.143 652.666L491.302 652.524L492.233 685.737L493.461 729.487L518.348 750.38H510.307Z" fill="#393846"/>
<path id="Vector_26" d="M432.076 750.38L415.424 736.404L415.812 750.38H410.654L410.24 735.602L387.757 750.38H378.345L410.059 729.526L408.831 685.737L407.913 652.666L413.084 652.524L414.015 685.737L415.23 729.487L440.118 750.38H432.076Z" fill="#3F3D56"/>
<path id="Vector_27" d="M286.25 566.475C279.83 566.475 273.472 565.21 267.541 562.754C261.609 560.297 256.219 556.695 251.679 552.155C247.14 547.615 243.538 542.226 241.081 536.294C238.624 530.362 237.36 524.005 237.36 517.584V493.139C237.36 480.172 242.511 467.737 251.679 458.568C260.848 449.399 273.284 444.248 286.25 444.248V566.475Z" fill="#1AACAC"/>
<path id="Vector_28" d="M598.303 444.248C604.724 444.248 611.081 445.513 617.013 447.97C622.945 450.427 628.334 454.028 632.874 458.568C637.414 463.108 641.016 468.498 643.473 474.429C645.93 480.361 647.194 486.719 647.194 493.139V517.584C647.194 524.005 645.93 530.362 643.473 536.294C641.016 542.226 637.414 547.615 632.874 552.155C628.334 556.695 622.945 560.296 617.013 562.753C611.081 565.21 604.724 566.475 598.304 566.475L598.303 444.248Z" fill="#1AACAC"/>
<path id="Vector_29" d="M623.923 496.98H616.166C616.166 398.603 536.13 318.567 437.752 318.567C339.375 318.567 259.338 398.603 259.338 496.98H251.581C251.581 394.325 335.097 310.81 437.752 310.81C540.408 310.81 623.923 394.326 623.923 496.98Z" fill="#1AACAC"/>
<g id="nota5">
<path id="Vector_30" d="M209.741 350.021L209.743 350.017L204.028 348.108L179.916 339.931L171.273 337L170.61 338.343L159 361.859L191.674 372.953L191.846 373.078L189.644 377.242C189.343 377.623 189.085 378.026 188.876 378.444C187.333 381.569 190.247 384.676 193 385.551C195.754 386.426 199.237 384.603 200.78 381.479C202.301 378.397 200.814 374.482 198.131 373.536L198.133 373.533L192.418 371.624L172.869 365.527L184.039 342.903L182.383 342.377L171.209 365.01L168.792 364.256L180.01 341.535L180.305 341.635L203.284 349.437L203.456 349.562L201.254 353.727C200.953 354.108 200.696 354.51 200.486 354.929C198.943 358.053 201.857 361.16 204.61 362.035C207.364 362.91 210.847 361.087 212.39 357.963C213.911 354.881 212.424 350.966 209.741 350.021Z" fill="#F29C9C"/>
</g>
<g id="nota6">
<path id="Vector_31" d="M220 448C211.882 441.098 213.506 425.952 213.506 425.952C213.302 416.113 207.835 417.505 207.835 417.505L205.845 418.18C204.921 417.543 203.903 417.263 202.887 417.367L199.86 418.124C206.752 420.532 206.186 429.105 206.186 429.105L207.151 439.129L189.092 428.296L191.166 421.027C191.452 420.356 191.697 419.647 191.896 418.909C193.362 413.404 190.593 407.928 187.975 406.386C185.357 404.844 182.046 408.057 180.58 413.562C179.134 418.992 180.547 425.891 183.098 427.557L183.096 427.564L188.529 430.928L188.569 430.737L220 448ZM210.829 430.387L211.409 439.982C209.364 435.716 208.403 430.509 208.698 425.288C208.65 423.431 208.228 421.638 207.488 420.141C208.626 421.225 209.54 422.756 210.13 424.564C210.72 426.372 210.962 428.387 210.829 430.387Z" fill="#F29C9C"/>
</g>
<g id="nota4">
<path id="Vector_32" d="M142.044 336.592L142.046 336.585L135.906 332.88L110.244 318.429L116.721 310.081C117.988 307.634 119.859 305.991 121.943 305.496C124.027 305.002 126.162 305.694 127.901 307.427L125.892 303.1C125.892 303.1 122.113 295.853 116.824 303.52C116.824 303.52 110.28 317.497 100 313.934L135.107 335.46L135.291 335.702L132.925 343.783C132.601 344.522 132.325 345.303 132.1 346.115C130.443 352.177 133.573 358.206 136.532 359.904C139.49 361.602 143.233 358.064 144.89 352.002C146.524 346.023 144.927 338.427 142.044 336.592Z" fill="#F29C9C"/>
</g>
<g id="nota3">
<path id="Vector_33" d="M78.0624 237.15L75.779 243.285C75.4664 243.846 75.1997 244.439 74.9824 245.056C73.3827 249.658 76.4038 254.236 79.2596 255.525C82.1155 256.814 85.7275 254.128 87.327 249.526C88.9048 244.986 87.3629 239.219 84.5799 237.825L84.5822 237.82L78.6559 235.007L58.3826 226.026L69.9662 192.696L68.2495 191.921L56.6614 225.264L54.1547 224.153L65.7877 190.681L66.0942 190.829L89.9244 202.323L90.1023 202.506L87.819 208.641C87.5065 209.203 87.2398 209.795 87.0224 210.412C85.4228 215.015 88.4438 219.593 91.2997 220.882C94.1555 222.171 97.7676 219.485 99.367 214.882C100.945 210.342 99.4029 204.575 96.6199 203.182L96.6222 203.176L90.6959 200.364L66.4773 188.697L65.6908 188.318L56.7279 184L44 220.622L77.8844 236.966L78.0624 237.15Z" fill="#F29C9C"/>
</g>
<g id="nota1">
<path id="Vector_34" d="M160.663 196.844L160.666 196.837L151.953 193.208L115.537 179.052L124.728 170.875C124.728 170.875 130.842 162.392 140.594 168.276L137.742 164.036C137.742 164.036 132.38 156.938 124.874 164.448C124.874 164.448 115.587 178.139 101 174.649L150.819 195.735L151.08 195.972L147.723 203.888C147.264 204.612 146.872 205.377 146.552 206.172C144.2 212.11 148.642 218.017 152.841 219.68C157.04 221.343 162.35 217.877 164.702 211.939C167.021 206.082 164.754 198.642 160.663 196.844Z" fill="#F29C9C"/>
</g>
<g id="nota2">
<path id="Vector_35" d="M190.107 310.921C176.284 300.252 179.05 276.841 179.05 276.841C178.702 261.632 169.394 263.784 169.394 263.784L166.006 264.828C164.432 263.842 162.699 263.409 160.968 263.57L155.815 264.741C167.55 268.463 166.586 281.715 166.586 281.715L168.23 297.209L137.481 280.464L141.012 269.227C141.5 268.19 141.916 267.094 142.255 265.954C144.752 257.444 140.037 248.98 135.579 246.597C131.122 244.214 125.484 249.18 122.988 257.689C120.525 266.083 122.932 276.746 127.276 279.322L127.272 279.332L136.522 284.532L136.591 284.238L190.107 310.921ZM174.493 283.696L175.482 298.578C169.676 288.175 170.863 275.815 170.863 275.815C170.781 272.944 170.064 270.173 168.804 267.859C175.473 273.246 174.493 283.696 174.493 283.696Z" fill="#F29C9C"/>
</g>
</g>
<defs>
<clipPath id="clip0_0_1">
<rect width="887.772" height="772.831" fill="white"/>
</clipPath>
</defs>
</svg>
